# xmcd
#
# Track frame offsets:
#	150
#	14147
#	27205
#	43162
#	55242
#	70330
#	83665
#	95395
#	111357
#	127502
#	143290
#	158882
#	173995
#	189737
#	202687
#	217882
#	231345
#	245200
#	261502
#	277015
#
# Disc length: 3904 seconds
#
# Revision: 0
# Processed by: cddbd v1.5.2PL0 Copyright (c) Steve Scherf et al.
# Submitted via: EasyCDDAExtractor 16.0.8.2
#
DISCID=1f0f3e14
DTITLE=Λύδια Γιώτα - Αξέχαστες επιτυχίες-Λύδια Γιώτα
DYEAR=1982
DGENRE=Λαϊκή
TTITLE0=Νύχτωσε χωρίς φεγγάρι [Α. Καλδάρα-Σ. Περιστέρη]
TTITLE1=Ηλιοβασιλέματα [Μ. Χιώτη]
TTITLE2=Η τσιγγάνα η Μαρίτσα [Σ. Ατταλίδη-Κ. Βίρβου]
TTITLE3=Συ μού χάραξες πορεία [Α. Καλδάρα]
TTITLE4=Νά 'χα εκατό καρδιές [Ν. Δαλέζιου]
TTITLE5=Αχ ας μπορούσα [Σ. Ατταλίδη-Φ. Κοινούση]
TTITLE6=Όταν πέσεις σ' άλλα χέρια [Α. Καλδάρα]
TTITLE7=Μού πέταξες τη βέρα [Σ. Ατταλίδη-Κ. Βίρβου]
TTITLE8=Φτωχέ πατέρα τι τραβάς [Μ.Μπακάλη-Κ.Βίρβου-Σ.Καμπέρη]
TTITLE9=Μια μελαχροινή [Σ. Περπινιάδη-Π. Κοκοντίνη]
TTITLE10=Γιατί θες να φύγεις [Σ. Ατταλίδη-Κ. Βίρβου]
TTITLE11=Γύρνα πάλι γύρνα [Σ. Ατταλίδη-Κ. Βίρβου]
TTITLE12=Σαν ζητιάνα σε κοιτώ [Σ. Ατταλίδη-Κ. Βίρβου]
TTITLE13=Όσα λουλούδια μάδησα [Κ. Παπαδόπουλου-Η. Παπασιδέρη]
TTITLE14=Ο ταυρομάχος ξεψυχά [Σ. Ατταλίδη-Κ. Βίρβου]
TTITLE15=Το συμφέρον [Μ. Βαμβακάρη]
TTITLE16=Σε ποιον να πω τον πόνο μου [Ν.Καρανικόλα-Η.Παπασιδέρη]
TTITLE17=Πες μου γιατί [Σ. Ατταλίδη-Κ. Βίρβου]
TTITLE18=Δίχως λόγο κι αφορμή [Σ. Ατταλίδη-Κ. Βίρβου]
TTITLE19=Χτυπώ νεκροί κι ανοίξτε μου [Γ. Μητσάκη]
EXTD=
EXTT0=
EXTT1=
EXTT2=
EXTT3=
EXTT4=
EXTT5=
EXTT6=
EXTT7=
EXTT8=
EXTT9=
EXTT10=
EXTT11=
EXTT12=
EXTT13=
EXTT14=
EXTT15=
EXTT16=
EXTT17=
EXTT18=
EXTT19=
PLAYORDER=
